# xmcd
#
# Track frame offsets: 
#        150
#        14325
#        29397
#        43850
#        59107
#        72585
#        85865
#        99582
#        113057
#        127610
#        141260
#        154840
#        167590
#        181127
#        194270
#        208535
#        220900
#        233732
#
# Disc length: 3293 seconds
#
# Revision: 3
# Processed by: cddbd v1.5.2PL0 Copyright (c) Steve Scherf et al.
# Submitted via: ExactAudioCopy v0.95b2
#
DISCID=fc0cdb12
DTITLE=Bessie Smith - The Complete Recordings Vol. 3 (Disk 2)
DYEAR=1992
DGENRE=Blues
TTITLE0=Muddy Water (A Mississippi Moan)
TTITLE1=There'll Be A Hot Time In The Old Town Tonight
TTITLE2=Trombone Cholly
TTITLE3=Send Me To The 'Lectric Chair
TTITLE4=Them's Graveyard Words
TTITLE5=Hot Spring Blues
TTITLE6=Sweet Mistreater
TTITLE7=Lock And Key
TTITLE8=Mean Old Bedbug Blues
TTITLE9=A Good Man Is Hard To Find
TTITLE10=Homeless Blues
TTITLE11=Looking For My Man Blues
TTITLE12=Dyin' By The Hour
TTITLE13=Foolish Man Blues
TTITLE14=Thinking Blues
TTITLE15=Pickpocket Blues
TTITLE16=I Used To Be Your Sweet Mama
TTITLE17=I'd Rather Be Dead And Buried In My Grave
EXTD=YEAR: 1992
EXTT0=
EXTT1=
EXTT2=
EXTT3=
EXTT4=
EXTT5=
EXTT6=
EXTT7=
EXTT8=
EXTT9=
EXTT10=
EXTT11=
EXTT12=
EXTT13=
EXTT14=
EXTT15=
EXTT16=
EXTT17=
PLAYORDER=
